<?xml version="1.0" encoding="UTF-8"?>
<svg version="1.1" xmlns="http://www.w3.org/2000/svg" width="96" height="96">
<path d="M0 0 C31.68 0 63.36 0 96 0 C96 31.68 96 63.36 96 96 C64.32 96 32.64 96 0 96 C0 64.32 0 32.64 0 0 Z " fill="#151515" transform="translate(0,0)"/>
<path d="M0 0 C31.68 0 63.36 0 96 0 C96 37 96 37 94 40 C93.01 40 92.02 40 91 40 C90.505 37.03 90.505 37.03 90 34 C89.34 34 88.68 34 88 34 C88.04125 34.763125 88.0825 35.52625 88.125 36.3125 C88 39 88 39 86 42 C82.9609375 42.29296875 82.9609375 42.29296875 79.375 42.1875 C78.18648438 42.16042969 76.99796875 42.13335937 75.7734375 42.10546875 C74.85820313 42.07066406 73.94296875 42.03585938 73 42 C72.67 40.35 72.34 38.7 72 37 C71.01 37 70.02 37 69 37 C68.67 33.7 68.34 30.4 68 27 C67.34 27 66.68 27 66 27 C66 25.35 66 23.7 66 22 C65.4225 21.7525 64.845 21.505 64.25 21.25 C62 20 62 20 60.2265625 17.9453125 C56.68608341 14.85205182 53.42534054 15.57273296 48.91796875 15.75390625 C44.24259531 16.14302342 44.24259531 16.14302342 40 18 C36.53694276 23.61254105 36.33986139 29.51919495 36 36 C35.34 36 34.68 36 34 36 C33.98582031 36.58007812 33.97164062 37.16015625 33.95703125 37.7578125 C33.58653352 43.82596445 32.4280133 46.78798735 28 51 C27.34 51 26.68 51 26 51 C25.42561843 54.94551825 24.88517325 58.89180347 24.38671875 62.84765625 C24.15415054 64.5860051 23.92106857 66.32428528 23.6875 68.0625 C23.58244141 68.93455078 23.47738281 69.80660156 23.36914062 70.70507812 C22.61073389 76.17969725 21.45625838 79.66007969 18 84 C19.65 84.33 21.3 84.66 23 85 C23.66 86.98 24.32 88.96 25 91 C24.34 91 23.68 91 23 91 C22.505 90.01 22.505 90.01 22 89 C21.67 89.99 21.34 90.98 21 92 C19.68 92 18.36 92 17 92 C17 92.66 17 93.32 17 94 C18.32 94 19.64 94 21 94 C21 94.66 21 95.32 21 96 C14.07 96 7.14 96 0 96 C0 64.32 0 32.64 0 0 Z " fill="#F3F3F3" transform="translate(0,0)"/>
<path d="M0 0 C0.33 1.32 0.66 2.64 1 4 C6.55053286 3.25640327 6.55053286 3.25640327 12 2 C12.1953125 4.05078125 12.390625 6.1015625 12.5859375 8.15234375 C12.72257812 8.76207031 12.85921875 9.37179688 13 10 C13.66 10.33 14.32 10.66 15 11 C15 13.64 15 16.28 15 19 C14.34 19 13.68 19 13 19 C12.98582031 19.58007812 12.97164062 20.16015625 12.95703125 20.7578125 C12.58653352 26.82596445 11.4280133 29.78798735 7 34 C6.34 34 5.68 34 5 34 C4.42561843 37.94551825 3.88517325 41.89180347 3.38671875 45.84765625 C3.15415054 47.5860051 2.92106857 49.32428528 2.6875 51.0625 C2.58244141 51.93455078 2.47738281 52.80660156 2.36914062 53.70507812 C1.61073389 59.17969725 0.45625838 62.66007969 -3 67 C-1.35 67.33 0.3 67.66 2 68 C2.66 69.98 3.32 71.96 4 74 C3.34 74 2.68 74 2 74 C1.505 73.01 1.505 73.01 1 72 C0.67 72.99 0.34 73.98 0 75 C-1.32 75 -2.64 75 -4 75 C-4 75.66 -4 76.32 -4 77 C-2.68 77 -1.36 77 0 77 C0 77.66 0 78.32 0 79 C-6.93 79 -13.86 79 -21 79 C-21 60.85 -21 42.7 -21 24 C-20.34 24 -19.68 24 -19 24 C-18.34 25.65 -17.68 27.3 -17 29 C-16.01 29 -15.02 29 -14 29 C-13.34 31.31 -12.68 33.62 -12 36 C-10.68 36.33 -9.36 36.66 -8 37 C-7.855625 36.05125 -7.71125 35.1025 -7.5625 34.125 C-7 31 -7 31 -6 29 C-7.65 29 -9.3 29 -11 29 C-10.67 28.34 -10.34 27.68 -10 27 C-9.01 27 -8.02 27 -7 27 C-7 25.02 -7 23.04 -7 21 C-8.32 20.67 -9.64 20.34 -11 20 C-10.67 19.29875 -10.34 18.5975 -10 17.875 C-8.90955438 14.73996884 -8.84677357 12.29436818 -9 9 C-9.66 9 -10.32 9 -11 9 C-10.67 7.02 -10.34 5.04 -10 3 C-9.34 3 -8.68 3 -8 3 C-7.34 6.3 -6.68 9.6 -6 13 C-3.50447516 12.21869929 -3.50447516 12.21869929 -1 11 C-0.67 10.01 -0.34 9.02 0 8 C-1.32 7.67 -2.64 7.34 -4 7 C-3.67 6.34 -3.34 5.68 -3 5 C-2.01 5 -1.02 5 0 5 C0 3.35 0 1.7 0 0 Z " fill="#D3D2D3" transform="translate(21,17)"/>
<path d="M0 0 C15.84 0 31.68 0 48 0 C48.04125 6.043125 48.0825 12.08625 48.125 18.3125 C48.14320801 20.21684814 48.16141602 22.12119629 48.18017578 24.08325195 C48.1860172 25.59325885 48.19111359 27.10326889 48.1953125 28.61328125 C48.20554443 29.39682983 48.21577637 30.18037842 48.22631836 30.9876709 C48.2275652 34.86099237 48.2002088 36.69968679 46 40 C45.01 40 44.02 40 43 40 C42.505 37.03 42.505 37.03 42 34 C41.34 34 40.68 34 40 34 C40.04125 34.763125 40.0825 35.52625 40.125 36.3125 C40 39 40 39 38 42 C34.9609375 42.29296875 34.9609375 42.29296875 31.375 42.1875 C30.18648437 42.16042969 28.99796875 42.13335937 27.7734375 42.10546875 C26.85820313 42.07066406 25.94296875 42.03585938 25 42 C24.505 39.525 24.505 39.525 24 37 C23.01 37 22.02 37 21 37 C20.505 32.05 20.505 32.05 20 27 C19.34 27 18.68 27 18 27 C18 25.35 18 23.7 18 22 C17.4225 21.7525 16.845 21.505 16.25 21.25 C14 20 14 20 12.375 17.9375 C8.69573339 14.93599303 4.62306143 15.17645273 0 15 C0 14.67 0 14.34 0 14 C0.81984375 13.89042969 1.6396875 13.78085938 2.484375 13.66796875 C3.56203125 13.50941406 4.6396875 13.35085938 5.75 13.1875 C6.81734375 13.03667969 7.8846875 12.88585938 8.984375 12.73046875 C12.08447562 11.97953764 13.68859817 11.15912124 16 9 C17.21514551 6.00887259 17.0536628 5.16098841 16 2 C15.01 2.66 14.02 3.32 13 4 C12.01 4.33 11.02 4.66 10 5 C9.67 5.99 9.34 6.98 9 8 C6.69 7.67 4.38 7.34 2 7 C1.67 8.32 1.34 9.64 1 11 C0.34 11 -0.32 11 -1 11 C-1.0270043 9.54176788 -1.04639787 8.08339325 -1.0625 6.625 C-1.07410156 5.81289062 -1.08570313 5.00078125 -1.09765625 4.1640625 C-1 2 -1 2 0 0 Z " fill="#EEEEEE" transform="translate(48,0)"/>
<path d="M0 0 C2.50251088 1.72586957 2.92751611 2.71665389 3.6875 5.6875 C3.790625 6.450625 3.89375 7.21375 4 8 C1.69 8 -0.62 8 -3 8 C-2.67 8.99 -2.34 9.98 -2 11 C-0.865625 10.979375 0.26875 10.95875 1.4375 10.9375 C5 11 5 11 6 12 C6.42474851 16.087334 5.68074316 18.09130264 3.1875 21.3125 C2.66542969 22.00988281 2.14335938 22.70726563 1.60546875 23.42578125 C0 25 0 25 -3 25 C-3 24.01 -3 23.02 -3 22 C-3.66 22 -4.32 22 -5 22 C-5.12117188 22.89203125 -5.24234375 23.7840625 -5.3671875 24.703125 C-5.53476562 25.87359375 -5.70234375 27.0440625 -5.875 28.25 C-6.03742187 29.41015625 -6.19984375 30.5703125 -6.3671875 31.765625 C-6.91820431 34.58193313 -7.55796482 36.55217557 -9 39 C-8.26394531 38.89300781 -7.52789062 38.78601563 -6.76953125 38.67578125 C1.21351637 37.69503696 1.21351637 37.69503696 5.0625 39.1875 C7.03023569 41.028285 8.04868473 42.49198703 9 45 C6.525 45.495 6.525 45.495 4 46 C4 46.66 4 47.32 4 48 C5.485 47.505 5.485 47.505 7 47 C7 47.99 7 48.98 7 50 C5.02 50 3.04 50 1 50 C1.33 50.66 1.66 51.32 2 52 C4.02463255 52.65213292 4.02463255 52.65213292 6 53 C6 53.66 6 54.32 6 55 C2.62537285 54.45276317 0.91765 53.9451 -2 52 C-2 53.32 -2 54.64 -2 56 C-1.34 56 -0.68 56 0 56 C0 56.66 0 57.32 0 58 C0.66 58 1.32 58 2 58 C2 58.99 2 59.98 2 61 C3.32 61 4.64 61 6 61 C9 66.625 9 66.625 9 70 C-2.88 70 -14.76 70 -27 70 C-26.67 68.68 -26.34 67.36 -26 66 C-25.34 66 -24.68 66 -24 66 C-23.67 66.33 -23.34 66.66 -23 67 C-22.97421875 66.21496094 -22.9484375 65.42992188 -22.921875 64.62109375 C-22.4015686 54.98360026 -22.4015686 54.98360026 -20.0625 51.375 C-16.59926212 45.70788347 -15.8596333 39.57384023 -16 33 C-17.65 33.66 -19.3 34.32 -21 35 C-19.80046117 31.91547158 -18.55305061 28.92338939 -17 26 C-16.690625 25.13375 -16.38125 24.2675 -16.0625 23.375 C-12.67992838 19.47991752 -7.94554204 19.5625659 -3 19 C-3 18.34 -3 17.68 -3 17 C-4.98 17 -6.96 17 -9 17 C-9.33 14.69 -9.66 12.38 -10 10 C-8.68 9.34 -7.36 8.68 -6 8 C-7.32 7.67 -8.64 7.34 -10 7 C-10 5.02 -10 3.04 -10 1 C-6.42704846 -1.33616062 -4.05773972 -1.12235354 0 0 Z " fill="#D2D1D0" transform="translate(50,26)"/>
<path d="M0 0 C14.19 0 28.38 0 43 0 C42.67 2.97 42.34 5.94 42 9 C35.375 10.125 35.375 10.125 32 9 C32 9.99 32 10.98 32 12 C30.741875 11.938125 29.48375 11.87625 28.1875 11.8125 C25.99364447 11.75592873 25.99364447 11.75592873 24 12 C23.505 12.515625 23.01 13.03125 22.5 13.5625 C21 15 21 15 19.05078125 14.9765625 C17.02458142 14.71488922 15.01059791 14.36256684 13 14 C12.67 14.66 12.34 15.32 12 16 C8.7 15.67 5.4 15.34 2 15 C1.76924429 19.79599165 1.76924429 19.79599165 2.96875 24.375 C4.10564274 27.26890879 4.40140212 29.71939594 4.625 32.8125 C4.69976563 33.78832031 4.77453125 34.76414063 4.8515625 35.76953125 C4.92503906 36.87361328 4.92503906 36.87361328 5 38 C2.525 38.495 2.525 38.495 0 39 C0 26.13 0 13.26 0 0 Z " fill="#EEEEEE" transform="translate(0,0)"/>
<path d="M0 0 C0.66 0 1.32 0 2 0 C2.66 1.65 3.32 3.3 4 5 C4.99 5 5.98 5 7 5 C7.25523437 5.81791016 7.25523437 5.81791016 7.515625 6.65234375 C9.32540814 12.28384978 11.50345378 17.63939569 14 23 C15.98 22.67 17.96 22.34 20 22 C19.67 23.32 19.34 24.64 19 26 C16.69 25.67 14.38 25.34 12 25 C11.814375 26.299375 11.62875 27.59875 11.4375 28.9375 C11.33308594 29.66839844 11.22867187 30.39929688 11.12109375 31.15234375 C11.08113281 31.76207031 11.04117187 32.37179688 11 33 C11.33 33.33 11.66 33.66 12 34 C12.26240708 36.00085397 12.52128615 38.00238595 12.74609375 40.0078125 C12.96423487 42.04925215 12.96423487 42.04925215 13.5625 44.1875 C14.11670503 46.48349228 14 48.64299258 14 51 C14.33 52.32 14.66 53.64 15 55 C10.05 55 5.1 55 0 55 C0 36.85 0 18.7 0 0 Z " fill="#2A2A2C" transform="translate(0,41)"/>
<path d="M0 0 C0.804375 0.185625 1.60875 0.37125 2.4375 0.5625 C3.283125 0.706875 4.12875 0.85125 5 1 C5.33 0.67 5.66 0.34 6 0 C9.11562452 -0.14535368 12.00562152 0.1205322 15 1 C17.5625 4.0625 17.5625 4.0625 19 7 C17.35 7.33 15.7 7.66 14 8 C14 8.66 14 9.32 14 10 C14.99 9.67 15.98 9.34 17 9 C17 9.99 17 10.98 17 12 C15.02 12 13.04 12 11 12 C11.33 12.66 11.66 13.32 12 14 C14.02463255 14.65213292 14.02463255 14.65213292 16 15 C16 15.66 16 16.32 16 17 C12.62537285 16.45276317 10.91765 15.9451 8 14 C8 15.32 8 16.64 8 18 C8.66 18 9.32 18 10 18 C10 18.66 10 19.32 10 20 C10.66 20 11.32 20 12 20 C12 20.99 12 21.98 12 23 C13.32 23 14.64 23 16 23 C19 28.625 19 28.625 19 32 C10.09 32 1.18 32 -8 32 C-6.890125 29.2253125 -5.74125054 26.46234722 -4.4453125 23.76953125 C-2.6130922 19.51624501 -2.25562552 15.26620111 -1.875 10.6875 C-1.10641399 2.21282799 -1.10641399 2.21282799 0 0 Z " fill="#1E1D1F" transform="translate(40,64)"/>
<path d="M0 0 C0.33 0 0.66 0 1 0 C1 1.98 1 3.96 1 6 C2.32 6.33 3.64 6.66 5 7 C4.67 7.99 4.34 8.98 4 10 C4 9.34 4 8.68 4 8 C3.01 8.495 3.01 8.495 2 9 C2 11.31 2 13.62 2 16 C3.98 16 5.96 16 8 16 C8 16.66 8 17.32 8 18 C6.87851562 18.22042969 6.87851562 18.22042969 5.734375 18.4453125 C-0.65948699 19.83716891 -0.65948699 19.83716891 -5.625 23.875 C-6.84655551 26.65126252 -7.64667599 28.9967459 -8 32 C-7.01 31.67 -6.02 31.34 -5 31 C-4.67 31.33 -4.34 31.66 -4 32 C-4.16276333 38.64825605 -5.125522 44.85087696 -8.5625 50.625 C-10.38378403 54.90105816 -10.54826621 58.78109611 -10.7890625 63.390625 C-11 66 -11 66 -12 68 C-12.33 67.01 -12.66 66.02 -13 65 C-13.99 65.495 -13.99 65.495 -15 66 C-15.33 66.99 -15.66 67.98 -16 69 C-16.66 69 -17.32 69 -18 69 C-18 68.34 -18 67.68 -18 67 C-19.32 67 -20.64 67 -22 67 C-22 66.34 -22 65.68 -22 65 C-20.68 65 -19.36 65 -18 65 C-17.67 63.68 -17.34 62.36 -17 61 C-16.67 61.99 -16.34 62.98 -16 64 C-16 63.01 -16 62.02 -16 61 C-16 60.01 -16 59.02 -16 58 C-17.98 58 -19.96 58 -22 58 C-21.37351562 57.05125 -20.74703125 56.1025 -20.1015625 55.125 C-17.51588776 50.59608248 -16.97094351 46.11900193 -16.375 41 C-14.91585603 29.36158977 -14.91585603 29.36158977 -13 24 C-12.195625 23.4225 -11.39125 22.845 -10.5625 22.25 C-6.55651165 18.73254681 -6.07752817 14.08102714 -5 9 C-4.01 9 -3.02 9 -2 9 C-1.22678118 6.01758453 -0.58803797 3.02419525 0 0 Z " fill="#242424" transform="translate(39,27)"/>
<path d="M0 0 C0.99 0 1.98 0 3 0 C3 0.99 3 1.98 3 3 C3.99 3 4.98 3 6 3 C5.67 2.01 5.34 1.02 5 0 C6.32 0.33 7.64 0.66 9 1 C9.05394705 3.60444348 9.09364469 6.20776998 9.125 8.8125 C9.14175781 9.55048828 9.15851563 10.28847656 9.17578125 11.04882812 C9.21074628 14.91246426 9.19397555 16.70903668 7 20 C6.01 20 5.02 20 4 20 C3.67 18.02 3.34 16.04 3 14 C2.34 14 1.68 14 1 14 C1.04125 14.763125 1.0825 15.52625 1.125 16.3125 C1 19 1 19 -1 22 C-4.0390625 22.29296875 -4.0390625 22.29296875 -7.625 22.1875 C-8.81351563 22.16042969 -10.00203125 22.13335937 -11.2265625 22.10546875 C-12.14179687 22.07066406 -13.05703125 22.03585938 -14 22 C-14.33 20.35 -14.66 18.7 -15 17 C-15.99 17 -16.98 17 -18 17 C-18 15.35 -18 13.7 -18 12 C-17.01 12 -16.02 12 -15 12 C-15 12.66 -15 13.32 -15 14 C-14.34 14 -13.68 14 -13 14 C-12.67 10.7 -12.34 7.4 -12 4 C-8.49223216 2.39644899 -5.85645121 1.77963136 -2 2 C-2 3.65 -2 5.3 -2 7 C-1.34 7 -0.68 7 0 7 C-0.185625 6.030625 -0.37125 5.06125 -0.5625 4.0625 C-0.706875 3.051875 -0.85125 2.04125 -1 1 C-0.67 0.67 -0.34 0.34 0 0 Z " fill="#F5F5F6" transform="translate(87,20)"/>
<path d="M0 0 C2.4294516 3.6441774 2.16179575 5.71241272 2 10 C2.99 10.33 3.98 10.66 5 11 C3.33333333 24.33333333 3.33333333 24.33333333 0 28.5 C-2 30 -2 30 -4 30 C-4.12375 31.11375 -4.2475 32.2275 -4.375 33.375 C-5 37 -5 37 -7 39 C-8.31747324 39.69748583 -9.64914193 40.36959957 -11 41 C-13.05922402 38.94077598 -12.41427579 34.78291876 -12.5625 31.9375 C-12.60568359 31.17888672 -12.64886719 30.42027344 -12.69335938 29.63867188 C-12.79973633 27.75934562 -12.90039934 25.87969756 -13 24 C-7.61607143 21.66071429 -7.61607143 21.66071429 -4 23 C-4.33 21.35 -4.66 19.7 -5 18 C-6.98 17.67 -8.96 17.34 -11 17 C-10.67 18.32 -10.34 19.64 -10 21 C-11.32 21.33 -12.64 21.66 -14 22 C-14.09765625 15.84765625 -14.09765625 15.84765625 -14 14 C-13 13 -13 13 -10.0625 12.875 C-7 13 -7 13 -5 14 C-5.15597656 13.31292969 -5.31195313 12.62585937 -5.47265625 11.91796875 C-5.66730469 11.01691406 -5.86195312 10.11585937 -6.0625 9.1875 C-6.25972656 8.29417969 -6.45695312 7.40085937 -6.66015625 6.48046875 C-7 4 -7 4 -6 1 C-4.02 0.67 -2.04 0.34 0 0 Z " fill="#F4F4F4" transform="translate(30,21)"/>
<path d="M0 0 C0.33 1.32 0.66 2.64 1 4 C6.55053286 3.25640327 6.55053286 3.25640327 12 2 C12.1953125 4.05078125 12.390625 6.1015625 12.5859375 8.15234375 C12.72257812 8.76207031 12.85921875 9.37179688 13 10 C13.66 10.33 14.32 10.66 15 11 C15 13.64 15 16.28 15 19 C14.67 17.68 14.34 16.36 14 15 C12.68 14.67 11.36 14.34 10 14 C10.020625 12.88625 10.04125 11.7725 10.0625 10.625 C10.26380718 7.16784079 10.26380718 7.16784079 9 5 C7.02 5 5.04 5 3 5 C2.89165625 9.44209357 3.29826347 13.61414671 4 18 C1.36 18 -1.28 18 -4 18 C-4.33 20.64 -4.66 23.28 -5 26 C-4.01 25.67 -3.02 25.34 -2 25 C-2 23.68 -2 22.36 -2 21 C0.875 20.8125 0.875 20.8125 4 21 C6 24 6 24 5.625 26.1875 C5.315625 27.0846875 5.315625 27.0846875 5 28 C4.05125 27.814375 3.1025 27.62875 2.125 27.4375 C-0.89868793 26.71313368 -0.89868793 26.71313368 -3 28 C-3 32.29 -3 36.58 -3 41 C-4.32 40.34 -5.64 39.68 -7 39 C-6.01 38.505 -6.01 38.505 -5 38 C-5.33 35.03 -5.66 32.06 -6 29 C-7.65 29 -9.3 29 -11 29 C-10.67 28.34 -10.34 27.68 -10 27 C-9.01 27 -8.02 27 -7 27 C-7 25.02 -7 23.04 -7 21 C-8.32 20.67 -9.64 20.34 -11 20 C-10.67 19.29875 -10.34 18.5975 -10 17.875 C-8.90955438 14.73996884 -8.84677357 12.29436818 -9 9 C-9.66 9 -10.32 9 -11 9 C-10.67 7.02 -10.34 5.04 -10 3 C-9.34 3 -8.68 3 -8 3 C-7.34 6.3 -6.68 9.6 -6 13 C-3.50447516 12.21869929 -3.50447516 12.21869929 -1 11 C-0.67 10.01 -0.34 9.02 0 8 C-1.32 7.67 -2.64 7.34 -4 7 C-3.67 6.34 -3.34 5.68 -3 5 C-2.01 5 -1.02 5 0 5 C0 3.35 0 1.7 0 0 Z " fill="#DCDCDC" transform="translate(21,17)"/>
<path d="M0 0 C0.33 0.66 0.66 1.32 1 2 C1.99 2 2.98 2 4 2 C5.34347563 6.0304269 4.71584892 9.61059962 4.25 13.75 C4.17523438 14.53632812 4.10046875 15.32265625 4.0234375 16.1328125 C3.45671036 21.302051 2.25157275 25.31413524 0 30 C-0.37125 30.969375 -0.7425 31.93875 -1.125 32.9375 C-3 35 -3 35 -5.19140625 35.3046875 C-7.48289084 35.3118596 -9.7193819 35.21515265 -12 35 C-11.67 33.68 -11.34 32.36 -11 31 C-10.34 31 -9.68 31 -9 31 C-8.67 31.33 -8.34 31.66 -8 32 C-7.97421875 31.21496094 -7.9484375 30.42992188 -7.921875 29.62109375 C-7.61508562 23.93851777 -7.35190844 19.81346122 -4.0546875 15 C-1.64709606 10.43449328 -0.997872 5.02715818 0 0 Z " fill="#CBCBCB" transform="translate(35,61)"/>
<path d="M0 0 C0.99 0.33 1.98 0.66 3 1 C3.680625 0.814375 4.36125 0.62875 5.0625 0.4375 C5.701875 0.293125 6.34125 0.14875 7 0 C7.66 0.66 8.32 1.32 9 2 C11.06874034 2.6425235 11.06874034 2.6425235 13 3 C13 3.66 13 4.32 13 5 C9.62537285 4.45276317 7.91765 3.9451 5 2 C5 3.32 5 4.64 5 6 C5.66 6 6.32 6 7 6 C7 6.66 7 7.32 7 8 C7.66 8 8.32 8 9 8 C9 8.99 9 9.98 9 11 C10.32 11 11.64 11 13 11 C16 16.625 16 16.625 16 20 C9.07 20 2.14 20 -5 20 C-3.875 12.125 -3.875 12.125 0 9 C0.66 9.33 1.32 9.66 2 10 C2.33 7.69 2.66 5.38 3 3 C2.01 3 1.02 3 0 3 C0 2.01 0 1.02 0 0 Z " fill="#5B5B5B" transform="translate(43,76)"/>
<path d="M0 0 C3.63 0 7.26 0 11 0 C10.67 3.3 10.34 6.6 10 10 C10.66 10 11.32 10 12 10 C12 11.98 12 13.96 12 16 C8.7 15.67 5.4 15.34 2 15 C1.76924429 19.79599165 1.76924429 19.79599165 2.96875 24.375 C4.10564274 27.26890879 4.40140212 29.71939594 4.625 32.8125 C4.69976563 33.78832031 4.77453125 34.76414063 4.8515625 35.76953125 C4.92503906 36.87361328 4.92503906 36.87361328 5 38 C2.525 38.495 2.525 38.495 0 39 C0 26.13 0 13.26 0 0 Z " fill="#D3D3D3" transform="translate(0,0)"/>
<path d="M0 0 C1.32 0.33 2.64 0.66 4 1 C4.50404219 4.91615756 5.00253233 8.8330023 5.5 12.75 C5.64308594 13.86117187 5.78617188 14.97234375 5.93359375 16.1171875 C6.06894531 17.18710938 6.20429688 18.25703125 6.34375 19.359375 C6.46943359 20.34389648 6.59511719 21.32841797 6.72460938 22.34277344 C7 25 7 25 7 29 C3.7 29 0.4 29 -3 29 C-3 20.09 -3 11.18 -3 2 C-2.01 2 -1.02 2 0 2 C0 1.34 0 0.68 0 0 Z " fill="#B4B3B3" transform="translate(3,67)"/>
<path d="M0 0 C0.66 0 1.32 0 2 0 C2.33 1.98 2.66 3.96 3 6 C3.99 6 4.98 6 6 6 C6.33 5.01 6.66 4.02 7 3 C7.33 3 7.66 3 8 3 C8.05394705 5.60444348 8.09364469 8.20776998 8.125 10.8125 C8.14175781 11.55048828 8.15851563 12.28847656 8.17578125 13.04882812 C8.21074628 16.91246426 8.19397555 18.70903668 6 22 C4.35 22 2.7 22 1 22 C0.67 18.37 0.34 14.74 0 11 C-2.31 11 -4.62 11 -7 11 C-7.33 11.66 -7.66 12.32 -8 13 C-9.65 12.67 -11.3 12.34 -13 12 C-13 12.66 -13 13.32 -13 14 C-14.65 14 -16.3 14 -18 14 C-18 10.37 -18 6.74 -18 3 C-17.34 3 -16.68 3 -16 3 C-15.67 4.32 -15.34 5.64 -15 7 C-13.96939453 6.98259766 -13.96939453 6.98259766 -12.91796875 6.96484375 C-12.01691406 6.95582031 -11.11585937 6.94679688 -10.1875 6.9375 C-9.29417969 6.92589844 -8.40085937 6.91429687 -7.48046875 6.90234375 C-5 7 -5 7 -2 8 C-1.34 5.36 -0.68 2.72 0 0 Z " fill="#5A5B5C" transform="translate(88,34)"/>
<path d="M0 0 C3.3 0 6.6 0 10 0 C10 3.63 10 7.26 10 11 C8.68 10.34 7.36 9.68 6 9 C6 9.804375 6 10.60875 6 11.4375 C6 13.95833333 6 16.47916667 6 19 C5.34 19 4.68 19 4 19 C4.33 19.99 4.66 20.98 5 22 C4.01 22 3.02 22 2 22 C1.34 21.34 0.68 20.68 0 20 C-0.33 21.32 -0.66 22.64 -1 24 C-1.99 23.67 -2.98 23.34 -4 23 C-4.66 23.33 -5.32 23.66 -6 24 C-6.19406478 22.35492782 -6.38007935 20.70890406 -6.5625 19.0625 C-6.66691406 18.14597656 -6.77132812 17.22945312 -6.87890625 16.28515625 C-6.91886719 15.53105469 -6.95882812 14.77695313 -7 14 C-6 13 -6 13 -2.4375 12.9375 C-1.303125 12.958125 -0.16875 12.97875 1 13 C0.84402344 12.22914062 0.68804687 11.45828125 0.52734375 10.6640625 C0.33269531 9.66117188 0.13804688 8.65828125 -0.0625 7.625 C-0.25972656 6.62726562 -0.45695312 5.62953125 -0.66015625 4.6015625 C-1 2 -1 2 0 0 Z " fill="#E8E7E7" transform="translate(74,0)"/>
<path d="M0 0 C0.34934248 2.93447681 0.51495218 5.14367502 -1.04296875 7.734375 C-2.375 9.375 -2.375 9.375 -5 12 C-5.66 12 -6.32 12 -7 12 C-7.12375 13.11375 -7.2475 14.2275 -7.375 15.375 C-8 19 -8 19 -10 21 C-11.31747324 21.69748583 -12.64914193 22.36959957 -14 23 C-16.05922402 20.94077598 -15.41427579 16.78291876 -15.5625 13.9375 C-15.60568359 13.17888672 -15.64886719 12.42027344 -15.69335938 11.63867188 C-15.79973633 9.75934562 -15.90039934 7.87969756 -16 6 C-10.61607143 3.66071429 -10.61607143 3.66071429 -7 5 C-7 3.68 -7 2.36 -7 1 C-1.125 0 -1.125 0 0 0 Z " fill="#EEEEEE" transform="translate(33,39)"/>
<path d="M0 0 C5.28 0 10.56 0 16 0 C15.67 2.97 15.34 5.94 15 9 C8.375 10.125 8.375 10.125 5 9 C5 9.99 5 10.98 5 12 C3.741875 11.938125 2.48375 11.87625 1.1875 11.8125 C-2.16958979 11.76367078 -2.16958979 11.76367078 -5 13.5 C-5.33 13.995 -5.66 14.49 -6 15 C-7.61949011 12.42786866 -8.04408751 11.32330841 -7.625 8.25 C-7.41875 7.5075 -7.2125 6.765 -7 6 C-6.01 7.32 -5.02 8.64 -4 10 C-2.02 9.67 -0.04 9.34 2 9 C1.67 8.443125 1.34 7.88625 1 7.3125 C0 5 0 5 0 0 Z " fill="#F0F0F0" transform="translate(27,0)"/>
<path d="M0 0 C3.63 0 7.26 0 11 0 C11.1953125 6.8359375 11.1953125 6.8359375 11 9 C10.34 9.66 9.68 10.32 9 11 C8.83322718 14.58343976 8.83322718 14.58343976 9 18 C5.86650268 19.04449911 5.01031744 18.93423645 2 18 C1.33333333 12 0.66666667 6 0 0 Z " fill="#EBE9E9" transform="translate(85,0)"/>
<path d="M0 0 C1.14266516 3.35897545 0.85911331 5.30450352 -0.3125 8.625 C-0.70888672 9.78902344 -0.70888672 9.78902344 -1.11328125 10.9765625 C-2 13 -2 13 -4 15 C-2.35 15.33 -0.7 15.66 1 16 C1.66 17.98 2.32 19.96 3 22 C2.34 22 1.68 22 1 22 C0.67 21.34 0.34 20.68 0 20 C-0.33 20.99 -0.66 21.98 -1 23 C-2.32 23 -3.64 23 -5 23 C-5 23.66 -5 24.32 -5 25 C-3.68 25 -2.36 25 -1 25 C-1 25.66 -1 26.32 -1 27 C-2.98 27 -4.96 27 -7 27 C-9.2535202 23.61971971 -9.11314298 20.80964264 -9.00390625 16.90625 C-8.99959628 14.80298492 -9.3351193 12.99464211 -10 11 C-9.195625 10.773125 -8.39125 10.54625 -7.5625 10.3125 C-6.716875 9.879375 -5.87125 9.44625 -5 9 C-4.17295995 6.53176909 -4.17295995 6.53176909 -4 4 C-3.67 3.34 -3.34 2.68 -3 2 C-2.34 2 -1.68 2 -1 2 C-0.67 1.34 -0.34 0.68 0 0 Z " fill="#C5C5C4" transform="translate(22,69)"/>
<path d="M0 0 C0.66 0 1.32 0 2 0 C2.66 1.65 3.32 3.3 4 5 C4.99 5 5.98 5 7 5 C6.855625 5.53625 6.71125 6.0725 6.5625 6.625 C5.31524788 11.89117563 4.92499841 16.01469745 5.9375 21.375 C6.22947266 22.96441406 6.22947266 22.96441406 6.52734375 24.5859375 C6.68332031 25.38257812 6.83929687 26.17921875 7 27 C5.68 26.67 4.36 26.34 3 26 C3 26.66 3 27.32 3 28 C2.01 28 1.02 28 0 28 C0 18.76 0 9.52 0 0 Z " fill="#3C3C3B" transform="translate(0,41)"/>
<path d="M0 0 C2.50251088 1.72586957 2.92751611 2.71665389 3.6875 5.6875 C3.790625 6.450625 3.89375 7.21375 4 8 C1.69 8 -0.62 8 -3 8 C-3 8.66 -3 9.32 -3 10 C-3.66 10 -4.32 10 -5 10 C-5 12.31 -5 14.62 -5 17 C-6.32 17 -7.64 17 -9 17 C-9.33 14.69 -9.66 12.38 -10 10 C-8.68 9.34 -7.36 8.68 -6 8 C-7.32 7.67 -8.64 7.34 -10 7 C-10 5.02 -10 3.04 -10 1 C-6.42704846 -1.33616062 -4.05773972 -1.12235354 0 0 Z " fill="#C1BFBD" transform="translate(50,26)"/>
<path d="M0 0 C2.1640625 0.7265625 2.1640625 0.7265625 4.7265625 3.7890625 C5.2009375 4.7584375 5.6753125 5.7278125 6.1640625 6.7265625 C4.5140625 7.0565625 2.8640625 7.3865625 1.1640625 7.7265625 C1.4940625 8.7165625 1.8240625 9.7065625 2.1640625 10.7265625 C-6.09680707 11.04428825 -6.09680707 11.04428825 -8.8359375 8.7265625 C-9.7734375 5.7890625 -9.7734375 5.7890625 -9.8359375 2.7265625 C-7.04574988 -1.1367742 -4.36917639 -0.61196933 0 0 Z " fill="#E0E0DF" transform="translate(52.8359375,64.2734375)"/>
<path d="M0 0 C0.99 0.33 1.98 0.66 3 1 C3.680625 0.814375 4.36125 0.62875 5.0625 0.4375 C5.701875 0.293125 6.34125 0.14875 7 0 C7.66 0.66 8.32 1.32 9 2 C11.06874034 2.6425235 11.06874034 2.6425235 13 3 C13 3.66 13 4.32 13 5 C9.62537285 4.45276317 7.91765 3.9451 5 2 C5 3.32 5 4.64 5 6 C5.66 6 6.32 6 7 6 C7 6.66 7 7.32 7 8 C7.66 8 8.32 8 9 8 C8.649375 8.556875 8.29875 9.11375 7.9375 9.6875 C6.78154007 12.53886783 7.19032562 14.08517222 8 17 C6.02 17.33 4.04 17.66 2 18 C1.01 15.03 0.02 12.06 -1 9 C-0.01 9.33 0.98 9.66 2 10 C2.33 7.69 2.66 5.38 3 3 C2.01 3 1.02 3 0 3 C0 2.01 0 1.02 0 0 Z " fill="#A2A2A2" transform="translate(43,76)"/>
<path d="M0 0 C0 1.98 0 3.96 0 6 C-0.66 5.67 -1.32 5.34 -2 5 C-2 4.34 -2 3.68 -2 3 C-3.98 3.99 -3.98 3.99 -6 5 C-6 6.65 -6 8.3 -6 10 C-5.01 10.33 -4.02 10.66 -3 11 C-3 12.32 -3 13.64 -3 15 C-4.98 15.33 -6.96 15.66 -9 16 C-9 15.34 -9 14.68 -9 14 C-11.31 14 -13.62 14 -16 14 C-15.67 12.35 -15.34 10.7 -15 9 C-14.34 9.33 -13.68 9.66 -13 10 C-13 10.66 -13 11.32 -13 12 C-12.34 12 -11.68 12 -11 12 C-10.67 8.7 -10.34 5.4 -10 2 C-6.49223216 0.39644899 -3.85645121 -0.22036864 0 0 Z " fill="#F8F8F8" transform="translate(85,22)"/>
<path d="M0 0 C0.309375 0.639375 0.61875 1.27875 0.9375 1.9375 C1.8345163 3.93610821 1.8345163 3.93610821 3 5 C3.26240708 7.00085397 3.52128615 9.00238595 3.74609375 11.0078125 C3.96423487 13.04925215 3.96423487 13.04925215 4.5625 15.1875 C5.11670503 17.48349228 5 19.64299258 5 22 C5.29044914 23.34332728 5.60955794 24.68225804 6 26 C4.35 26 2.7 26 1 26 C0.49236135 23.31374546 -0.00627197 20.62631617 -0.5 17.9375 C-0.64308594 17.18533203 -0.78617188 16.43316406 -0.93359375 15.65820312 C-1.76954224 11.06048644 -2.33483659 6.69369144 -2 2 C-1.34 1.34 -0.68 0.68 0 0 Z " fill="#2F2F31" transform="translate(9,70)"/>
<path d="M0 0 C3.66829266 5.50243899 3.12789125 11.60543766 3 18 C5.31 18 7.62 18 10 18 C9.67 15.36 9.34 12.72 9 10 C9.99 9.67 10.98 9.34 12 9 C12 12.96 12 16.92 12 21 C11.01 21 10.02 21 9 21 C9 21.66 9 22.32 9 23 C8.01 23 7.02 23 6 23 C6 22.01 6 21.02 6 20 C4.35 20 2.7 20 1 20 C0 17 0 17 1 14 C0.0409375 14.2784375 0.0409375 14.2784375 -0.9375 14.5625 C-1.618125 14.706875 -2.29875 14.85125 -3 15 C-4 14 -4 14 -4.0625 11.4375 C-4.041875 10.633125 -4.02125 9.82875 -4 9 C-3.01 9.33 -2.02 9.66 -1 10 C-0.67 6.7 -0.34 3.4 0 0 Z " fill="#B5B2B2" transform="translate(84,0)"/>
<path d="M0 0 C0.66 0 1.32 0 2 0 C2.33 1.65 2.66 3.3 3 5 C2.01 5.495 2.01 5.495 1 6 C1.99 6.33 2.98 6.66 4 7 C3.49396008 9.16874252 3.00016187 10.99967627 2 13 C-2.29 13 -6.58 13 -11 13 C-11.33 11.35 -11.66 9.7 -12 8 C-12.99 7.67 -13.98 7.34 -15 7 C-11.14453537 6.92585645 -7.70736197 6.90152238 -4 8 C-3.34 8 -2.68 8 -2 8 C-1.855625 6.865625 -1.71125 5.73125 -1.5625 4.5625 C-1 1 -1 1 0 0 Z " fill="#E7E6E8" transform="translate(84,29)"/>
<path d="M0 0 C0.63019694 8.19256018 0.63019694 8.19256018 -2 11.5625 C-2.66 12.036875 -3.32 12.51125 -4 13 C-4 12.34 -4 11.68 -4 11 C-4.99 11 -5.98 11 -7 11 C-8.6875 9 -8.6875 9 -10 7 C-11.98 7.99 -11.98 7.99 -14 9 C-13.690625 8.236875 -13.38125 7.47375 -13.0625 6.6875 C-12.32106407 4.81210323 -11.63771783 2.91315348 -11 1 C-9.35 1 -7.7 1 -6 1 C-6 1.66 -6 2.32 -6 3 C-5.195625 2.505 -4.39125 2.01 -3.5625 1.5 C-1 0 -1 0 0 0 Z " fill="#E4E4E4" transform="translate(43,52)"/>
<path d="M0 0 C0.99 0.33 1.98 0.66 3 1 C2.67 1.99 2.34 2.98 2 4 C2.185625 5.010625 2.37125 6.02125 2.5625 7.0625 C2.706875 8.031875 2.85125 9.00125 3 10 C2.34 10.66 1.68 11.32 1 12 C1.33 12.5775 1.66 13.155 2 13.75 C3 16 3 16 3 20 C1.02 20 -0.96 20 -3 20 C-3.08069658 17.04112541 -3.14034665 14.0844341 -3.1875 11.125 C-3.21263672 10.28324219 -3.23777344 9.44148438 -3.26367188 8.57421875 C-3.27333984 7.76855469 -3.28300781 6.96289062 -3.29296875 6.1328125 C-3.3086792 5.38918457 -3.32438965 4.64555664 -3.34057617 3.87939453 C-3.22818604 3.25919434 -3.1157959 2.63899414 -3 2 C-2.01 1.34 -1.02 0.68 0 0 Z " fill="#6F6F6F" transform="translate(3,76)"/>
<path d="M0 0 C3.63 0 7.26 0 11 0 C10.67 2.31 10.34 4.62 10 7 C6.94736336 7.98120464 5.05263664 7.98120464 2 7 C1.67 8.32 1.34 9.64 1 11 C0.34 11 -0.32 11 -1 11 C-1.0270043 9.54176788 -1.04639787 8.08339325 -1.0625 6.625 C-1.07410156 5.81289062 -1.08570313 5.00078125 -1.09765625 4.1640625 C-1 2 -1 2 0 0 Z " fill="#DAD9DA" transform="translate(48,0)"/>
<path d="M0 0 C0.33 0.99 0.66 1.98 1 3 C0.38125 3.969375 -0.2375 4.93875 -0.875 5.9375 C-3.55653557 10.23164288 -3.6062325 14.46192288 -3.82421875 19.42578125 C-4 22 -4 22 -5 24 C-5.33 23.01 -5.66 22.02 -6 21 C-6.66 21.33 -7.32 21.66 -8 22 C-8.33 22.99 -8.66 23.98 -9 25 C-9.66 25 -10.32 25 -11 25 C-11 24.34 -11 23.68 -11 23 C-12.32 23 -13.64 23 -15 23 C-15 22.34 -15 21.68 -15 21 C-13.68 21 -12.36 21 -11 21 C-10.67 19.68 -10.34 18.36 -10 17 C-9.67 17.99 -9.34 18.98 -9 20 C-8.93232421 16.15015566 -8.93232421 16.15015566 -9.3125 12.9375 C-9.1578125 11.4834375 -9.1578125 11.4834375 -9 10 C-7.36209288 8.95355934 -5.68991979 7.9601817 -4 7 C-2.41499012 4.75161538 -1.25407034 2.46169363 0 0 Z " fill="#454545" transform="translate(32,71)"/>
<path d="M0 0 C0.33 1.32 0.66 2.64 1 4 C6.55053286 3.25640327 6.55053286 3.25640327 12 2 C12.1953125 4.05078125 12.390625 6.1015625 12.5859375 8.15234375 C12.72257812 8.76207031 12.85921875 9.37179688 13 10 C13.66 10.33 14.32 10.66 15 11 C15 13.64 15 16.28 15 19 C14.67 17.68 14.34 16.36 14 15 C12.68 14.67 11.36 14.34 10 14 C10.020625 12.88625 10.04125 11.7725 10.0625 10.625 C10.26380718 7.16784079 10.26380718 7.16784079 9 5 C7.02 5 5.04 5 3 5 C2.89165625 9.44209357 3.29826347 13.61414671 4 18 C2.68 17.67 1.36 17.34 0 17 C0.165 16.278125 0.33 15.55625 0.5 14.8125 C0.97587119 12.13572455 1.077443 9.71050513 1 7 C-0.65 7 -2.3 7 -4 7 C-3.67 6.34 -3.34 5.68 -3 5 C-2.01 5 -1.02 5 0 5 C0 3.35 0 1.7 0 0 Z " fill="#BBBABB" transform="translate(21,17)"/>
<path d="M0 0 C0.34934248 2.93447681 0.51495218 5.14367502 -1.04296875 7.734375 C-2.375 9.375 -2.375 9.375 -5 12 C-5.66 12 -6.32 12 -7 12 C-7.33 14.31 -7.66 16.62 -8 19 C-8.99 18.67 -9.98 18.34 -11 18 C-11 17.34 -11 16.68 -11 16 C-11.66 15.34 -12.32 14.68 -13 14 C-11.35 13.67 -9.7 13.34 -8 13 C-7.835 11.7625 -7.67 10.525 -7.5 9.25 C-7.4071875 8.55390625 -7.314375 7.8578125 -7.21875 7.140625 C-6.93222643 4.69541605 -6.93222643 4.69541605 -7 1 C-1.125 0 -1.125 0 0 0 Z " fill="#ECECEB" transform="translate(33,39)"/>
<path d="M0 0 C0.66 0 1.32 0 2 0 C2.33 1.32 2.66 2.64 3 4 C3.69867188 3.97679687 4.39734375 3.95359375 5.1171875 3.9296875 C6.02726562 3.91164062 6.93734375 3.89359375 7.875 3.875 C9.23238281 3.84019531 9.23238281 3.84019531 10.6171875 3.8046875 C13 4 13 4 15 6 C15.99 6.33 16.98 6.66 18 7 C18 7.33 18 7.66 18 8 C15.69 8 13.38 8 11 8 C10.67 8.66 10.34 9.32 10 10 C8.35 9.67 6.7 9.34 5 9 C5 9.66 5 10.32 5 11 C3.35 11 1.7 11 0 11 C0 7.37 0 3.74 0 0 Z " fill="#373739" transform="translate(70,37)"/>
<path d="M0 0 C1.23102992 3.69308976 0.87175152 6.88050712 0.5625 10.6875 C0.51029297 11.38939453 0.45808594 12.09128906 0.40429688 12.81445312 C0.27492135 14.54338054 0.13817469 16.27175355 0 18 C0.66 18.33 1.32 18.66 2 19 C1.67 19.66 1.34 20.32 1 21 C-1.97 21 -4.94 21 -8 21 C-7.67 19.68 -7.34 18.36 -7 17 C-6.34 17 -5.68 17 -5 17 C-4.67 17.33 -4.34 17.66 -4 18 C-3.96261719 17.20335938 -3.92523437 16.40671875 -3.88671875 15.5859375 C-3.52043059 9.68223426 -3.21397206 5.03056497 0 0 Z " fill="#878686" transform="translate(31,75)"/>
<path d="M0 0 C1.65 0 3.3 0 5 0 C5.33 4.29 5.66 8.58 6 13 C5.02417969 13.04898437 4.04835938 13.09796875 3.04296875 13.1484375 C1.77066406 13.22320312 0.49835938 13.29796875 -0.8125 13.375 C-2.70935547 13.47941406 -2.70935547 13.47941406 -4.64453125 13.5859375 C-8.12755234 13.76102939 -8.12755234 13.76102939 -11 16 C-13.48046875 15.9765625 -13.48046875 15.9765625 -16.1875 15.625 C-17.08855469 15.51414062 -17.98960938 15.40328125 -18.91796875 15.2890625 C-19.60503906 15.19367187 -20.29210938 15.09828125 -21 15 C-21 14.67 -21 14.34 -21 14 C-20.20335937 13.90203125 -19.40671875 13.8040625 -18.5859375 13.703125 C-12.37295727 12.82635407 -7.86233769 12.05194808 -3 8 C-2.67 9.32 -2.34 10.64 -2 12 C-0.35 11.67 1.3 11.34 3 11 C3 7.7 3 4.4 3 1 C2.01 0.67 1.02 0.34 0 0 Z " fill="#C2C2C2" transform="translate(69,0)"/>
<path d="M0 0 C2.31 0.33 4.62 0.66 7 1 C6.95875 1.78375 6.9175 2.5675 6.875 3.375 C6.71271266 6.16116119 6.71271266 6.16116119 9 8 C9.125 11.125 9.125 11.125 9 14 C8.34 14 7.68 14 7 14 C7 12.35 7 10.7 7 9 C6.113125 9.33 5.22625 9.66 4.3125 10 C1.29076653 10.91222143 -0.88373706 11.18330958 -4 11 C-4 10.34 -4 9.68 -4 9 C-4.66 8.67 -5.32 8.34 -6 8 C-5.01 7.34 -4.02 6.68 -3 6 C-2.67 6.99 -2.34 7.98 -2 9 C-1.34 8.67 -0.68 8.34 0 8 C0 7.34 0 6.68 0 6 C0.66 5.67 1.32 5.34 2 5 C2 4.34 2 3.68 2 3 C1.34 2.67 0.68 2.34 0 2 C0 1.34 0 0.68 0 0 Z " fill="#E7E7E6" transform="translate(78,13)"/>
<path d="M0 0 C1.65 0 3.3 0 5 0 C4.67 2.64 4.34 5.28 4 8 C4.66 8.33 5.32 8.66 6 9 C5.67 9.99 5.34 10.98 5 12 C3.741875 11.938125 2.48375 11.87625 1.1875 11.8125 C-2.16958979 11.76367078 -2.16958979 11.76367078 -5 13.5 C-5.33 13.995 -5.66 14.49 -6 15 C-7.61949011 12.42786866 -8.04408751 11.32330841 -7.625 8.25 C-7.41875 7.5075 -7.2125 6.765 -7 6 C-6.01 7.32 -5.02 8.64 -4 10 C-2.02 9.67 -0.04 9.34 2 9 C1.67 8.443125 1.34 7.88625 1 7.3125 C-0.1309601 4.69715478 -0.15662974 2.8193354 0 0 Z " fill="#B2B1B3" transform="translate(27,0)"/>
<path d="M0 0 C2.31 0 4.62 0 7 0 C7.66 2.97 8.32 5.94 9 9 C6.69 9.66 4.38 10.32 2 11 C1 10 1 10 0.9375 6.9375 C0.958125 5.968125 0.97875 4.99875 1 4 C0.34 3.67 -0.32 3.34 -1 3 C-0.67 2.01 -0.34 1.02 0 0 Z " fill="#F6F6F6" transform="translate(20,0)"/>
<path d="M0 0 C0.99 0 1.98 0 3 0 C3.99 3.96 4.98 7.92 6 12 C4.02 12.66 2.04 13.32 0 14 C-1.41029891 10.20982169 -2.43881648 7.05905248 -2 3 C-1.34 2.01 -0.68 1.02 0 0 Z " fill="#DBDBDC" transform="translate(12,66)"/>
<path d="M0 0 C0.99 0.495 0.99 0.495 2 1 C2.5625 3.3125 2.5625 3.3125 3 6 C3.16242188 6.59683594 3.32484375 7.19367187 3.4921875 7.80859375 C4.10515164 10.45376978 4.33707597 13.04491165 4.5625 15.75 C4.64628906 16.73484375 4.73007813 17.7196875 4.81640625 18.734375 C4.87699219 19.48203125 4.93757812 20.2296875 5 21 C3.35 21.33 1.7 21.66 0 22 C0 14.74 0 7.48 0 0 Z " fill="#E7E6E7" transform="translate(0,17)"/>
<path d="M0 0 C2.31 0.33 4.62 0.66 7 1 C7.66 2.98 8.32 4.96 9 7 C8.34 7 7.68 7 7 7 C6.67 6.34 6.34 5.68 6 5 C5.67 5.99 5.34 6.98 5 8 C3.68 8 2.36 8 1 8 C1 8.66 1 9.32 1 10 C2.32 10 3.64 10 5 10 C5 10.66 5 11.32 5 12 C3.02 12 1.04 12 -1 12 C-1.33 10.68 -1.66 9.36 -2 8 C-1.34 8 -0.68 8 0 8 C0 5.36 0 2.72 0 0 Z " fill="#91908F" transform="translate(16,84)"/>
<path d="M0 0 C1.65 0 3.3 0 5 0 C4.01 0.495 4.01 0.495 3 1 C3 1.66 3 2.32 3 3 C3.66 3 4.32 3 5 3 C5 6.3 5 9.6 5 13 C4.01 13.33 3.02 13.66 2 14 C1.34 13.67 0.68 13.34 0 13 C0 8.71 0 4.42 0 0 Z " fill="#FAFAFA" transform="translate(0,0)"/>
<path d="M0 0 C0.33 0 0.66 0 1 0 C1.02705308 2.41674224 1.04686438 4.8331794 1.0625 7.25 C1.07087891 7.93191406 1.07925781 8.61382812 1.08789062 9.31640625 C1.10428392 12.69342554 1.05628768 15.77291639 0 19 C-1.32 19 -2.64 19 -4 19 C-2.125 2.125 -2.125 2.125 0 0 Z " fill="#D4D2D2" transform="translate(37,69)"/>
<path d="M0 0 C1.125 1.75 1.125 1.75 2 4 C1.15177325 7.11016477 0.07837944 7.94774704 -2.625 9.75 C-3.800625 10.36875 -3.800625 10.36875 -5 11 C-5.66 10.34 -6.32 9.68 -7 9 C-6.79828958 5.83987005 -6.51579075 3.70335103 -4.625 1.125 C-3 0 -3 0 0 0 Z " fill="#F6F6F6" transform="translate(64,2)"/>
<path d="M0 0 C2.31 0.66 4.62 1.32 7 2 C6.01 2.495 6.01 2.495 5 3 C5.33 5.97 5.66 8.94 6 12 C4.68 12.33 3.36 12.66 2 13 C1.34 10.36 0.68 7.72 0 5 C-1.32 4.67 -2.64 4.34 -4 4 C-3.01 3.67 -2.02 3.34 -1 3 C-0.67 2.01 -0.34 1.02 0 0 Z " fill="#777678" transform="translate(87,39)"/>
<path d="M0 0 C3.125 0.375 3.125 0.375 6 1 C6.33 4.96 6.66 8.92 7 13 C6.01 13.495 6.01 13.495 5 14 C5 12.35 5 10.7 5 9 C4.401875 8.773125 3.80375 8.54625 3.1875 8.3125 C0.43648112 6.66188867 -0.52484637 4.8027919 -2 2 C-1.34 1.34 -0.68 0.68 0 0 Z " fill="#CCCCCC" transform="translate(61,13)"/>
<path d="M0 0 C3.3 0 6.6 0 10 0 C10 1.65 10 3.3 10 5 C9.01 5.66 8.02 6.32 7 7 C7 6.01 7 5.02 7 4 C6.401875 4.33 5.80375 4.66 5.1875 5 C3 6 3 6 0 6 C-1.125 2.25 -1.125 2.25 0 0 Z " fill="#F9F9F9" transform="translate(74,0)"/>
<path d="M0 0 C1.32 0 2.64 0 4 0 C3.979375 1.2375 3.95875 2.475 3.9375 3.75 C3.93233319 6.6640825 4.06984442 9.20953327 5 12 C3.35 12 1.7 12 0 12 C-1.17661508 8.32307787 -1.14475933 4.8361222 -1 1 C-0.67 0.67 -0.34 0.34 0 0 Z " fill="#1B1B1C" transform="translate(10,84)"/>
<path d="M0 0 C2.04795423 1.9626228 2.94976638 3.4277307 3.19921875 6.26953125 C3.18858877 8.51954383 3.12958525 10.75385562 3 13 C1.35 13 -0.3 13 -2 13 C-1.979375 12.05125 -1.95875 11.1025 -1.9375 10.125 C-1.77448174 7.09333717 -1.77448174 7.09333717 -3 5 C-1.5625 2.375 -1.5625 2.375 0 0 Z " fill="#3E3E3D" transform="translate(54,44)"/>
<path d="M0 0 C2 3.75 2 3.75 2 6 C2.99 6 3.98 6 5 6 C5.33 5.34 5.66 4.68 6 4 C6 5.98 6 7.96 6 10 C3 11 3 11 -1 10 C-1.33 7.03 -1.66 4.06 -2 1 C-1.34 0.67 -0.68 0.34 0 0 Z " fill="#FAF8F7" transform="translate(88,8)"/>
<path d="M0 0 C2.66666667 1.33333333 5.33333333 2.66666667 8 4 C8 5.32 8 6.64 8 8 C6.35 8.33 4.7 8.66 3 9 C3 8.01 3 7.02 3 6 C2.01 6.33 1.02 6.66 0 7 C-0.93423645 3.98968256 -1.04449911 3.13349732 0 0 Z " fill="#E8E8E8" transform="translate(45,36)"/>
<path d="M0 0 C-0.51035831 4.3890815 -1.52214277 7.33708062 -4 11 C-6 9 -6 9 -6.1953125 7.0546875 C-6.13020833 5.03645833 -6.06510417 3.01822917 -6 1 C-4 0 -4 0 0 0 Z " fill="#EDEDED" transform="translate(39,18)"/>
<path d="M0 0 C0.2475 0.639375 0.495 1.27875 0.75 1.9375 C1.79221124 4.09996117 1.79221124 4.09996117 3.6875 4.75 C9.50246224 5.46433137 9.50246224 5.46433137 15 4 C15 4.99 15 5.98 15 7 C14.07767578 7.09087891 14.07767578 7.09087891 13.13671875 7.18359375 C12.32847656 7.26738281 11.52023438 7.35117188 10.6875 7.4375 C9.88699219 7.51871094 9.08648437 7.59992188 8.26171875 7.68359375 C5.83912821 7.95265693 5.83912821 7.95265693 3 9 C2.67 8.67 2.34 8.34 2 8 C1.34 8.66 0.68 9.32 0 10 C-0.33 8.68 -0.66 7.36 -1 6 C-0.34 6 0.32 6 1 6 C0.67 4.02 0.34 2.04 0 0 Z " fill="#363638" transform="translate(42,69)"/>
<path d="M0 0 C0.66 0.66 1.32 1.32 2 2 C1.67 2.66 1.34 3.32 1 4 C1.99 4.33 2.98 4.66 4 5 C3.67 5.99 3.34 6.98 3 8 C2.34 8 1.68 8 1 8 C1.33 8.99 1.66 9.98 2 11 C1.01 11 0.02 11 -1 11 C-2.81502739 7.26317891 -3.33059914 4.99179743 -2 1 C-1.34 0.67 -0.68 0.34 0 0 Z " fill="#F8F8F8" transform="translate(77,11)"/>
<path d="M0 0 C1.12764117 3.33720834 0.87990246 5.31283494 -0.25 8.625 C-0.50265625 9.40101562 -0.7553125 10.17703125 -1.015625 10.9765625 C-2 13 -2 13 -5 15 C-5 13.68 -5 12.36 -5 11 C-4.34 11 -3.68 11 -3 11 C-3 9.68 -3 8.36 -3 7 C-3.66 7 -4.32 7 -5 7 C-4.34 5.35 -3.68 3.7 -3 2 C-2.34 2 -1.68 2 -1 2 C-0.67 1.34 -0.34 0.68 0 0 Z " fill="#A1A0A0" transform="translate(22,69)"/>
<path d="M0 0 C0.66 0 1.32 0 2 0 C2 3.96 2 7.92 2 12 C1.01 12 0.02 12 -1 12 C-1 12.66 -1 13.32 -1 14 C-1.99 14 -2.98 14 -4 14 C-4 12.68 -4 11.36 -4 10 C-4.66 9.67 -5.32 9.34 -6 9 C-4.02 9 -2.04 9 0 9 C-0.185625 7.700625 -0.37125 6.40125 -0.5625 5.0625 C-0.87890625 2.84765625 -0.87890625 2.84765625 -1 1 C-0.67 0.67 -0.34 0.34 0 0 Z " fill="#CBCACC" transform="translate(94,9)"/>
<path d="M0 0 C3.3 0 6.6 0 10 0 C10 0.99 10 1.98 10 3 C7.69 3.33 5.38 3.66 3 4 C3.33 5.32 3.66 6.64 4 8 C3.01 8.495 3.01 8.495 2 9 C1.34 6.03 0.68 3.06 0 0 Z " fill="#E1DFDF" transform="translate(85,0)"/>
<path d="M0 0 C2.55028983 1.27514492 2.93081711 2.40341297 4 5 C4 5.99 4 6.98 4 8 C1.03 8 -1.94 8 -5 8 C-4.34 7.34 -3.68 6.68 -3 6 C-2.835 5.154375 -2.67 4.30875 -2.5 3.4375 C-2.335 2.633125 -2.17 1.82875 -2 1 C-1.34 0.67 -0.68 0.34 0 0 Z " fill="#BCBCBB" transform="translate(55,88)"/>
<path d="M0 0 C6.625 -0.125 6.625 -0.125 10 1 C10 2.65 10 4.3 10 6 C8.02 6 6.04 6 4 6 C3.67 4.35 3.34 2.7 3 1 C2.01 0.67 1.02 0.34 0 0 Z " fill="#DDDBDC" transform="translate(69,36)"/>
<path d="M0 0 C0.99 0.33 1.98 0.66 3 1 C2.67 3.31 2.34 5.62 2 8 C-0.31 8.33 -2.62 8.66 -5 9 C-5.33 7.68 -5.66 6.36 -6 5 C-3.69 5 -1.38 5 1 5 C0.67 3.35 0.34 1.7 0 0 Z " fill="#454343" transform="translate(53,29)"/>
<path d="M0 0 C0.99 0 1.98 0 3 0 C3.1953125 2.05078125 3.390625 4.1015625 3.5859375 6.15234375 C3.72257812 6.76207031 3.85921875 7.37179688 4 8 C4.66 8.33 5.32 8.66 6 9 C6 11.64 6 14.28 6 17 C5.67 15.68 5.34 14.36 5 13 C3.68 12.67 2.36 12.34 1 12 C1.020625 10.948125 1.04125 9.89625 1.0625 8.8125 C1.01103198 5.67295096 0.73482813 3.03116604 0 0 Z " fill="#ACA9AA" transform="translate(30,19)"/>
<path d="M0 0 C0.99 0 1.98 0 3 0 C2.67 2.97 2.34 5.94 2 9 C0.68 9 -0.64 9 -2 9 C-2.125 5.625 -2.125 5.625 -2 2 C-1.34 1.34 -0.68 0.68 0 0 Z " fill="#D5D4D7" transform="translate(40,0)"/>
<path d="M0 0 C0.33 0 0.66 0 1 0 C1 4.62 1 9.24 1 14 C1.99 14 2.98 14 4 14 C3.1875 15.9375 3.1875 15.9375 2 18 C1.01 18.33 0.02 18.66 -1 19 C-1.02705308 16.58325776 -1.04686438 14.1668206 -1.0625 11.75 C-1.07087891 11.06808594 -1.07925781 10.38617188 -1.08789062 9.68359375 C-1.10428392 6.30657446 -1.05628768 3.22708361 0 0 Z " fill="#B5B4B3" transform="translate(32,74)"/>
<path d="M0 0 C1.32 0.33 2.64 0.66 4 1 C4 3.97 4 6.94 4 10 C3.01 9.67 2.02 9.34 1 9 C1.66 9 2.32 9 3 9 C3 8.34 3 7.68 3 7 C1.68 7.33 0.36 7.66 -1 8 C-1.33 7.34 -1.66 6.68 -2 6 C-1.67 5.01 -1.34 4.02 -1 3 C-0.34 3 0.32 3 1 3 C0.67 2.01 0.34 1.02 0 0 Z " fill="#F5F5F5" transform="translate(92,20)"/>
<path d="M0 0 C1.65 0 3.3 0 5 0 C4.67 2.64 4.34 5.28 4 8 C4.66 8.33 5.32 8.66 6 9 C4.68 9 3.36 9 2 9 C0.14223235 5.86501708 -0.20140476 3.62528568 0 0 Z " fill="#C2C2C3" transform="translate(27,0)"/>
<path d="M0 0 C0.66 0.66 1.32 1.32 2 2 C2.99 2.33 3.98 2.66 5 3 C5 3.33 5 3.66 5 4 C2.69 4 0.38 4 -2 4 C-2.33 4.66 -2.66 5.32 -3 6 C-4.32 4.68 -5.64 3.36 -7 2 C-4 0 -4 0 0 0 Z " fill="#5B5D5D" transform="translate(83,41)"/>
<path d="M0 0 C1.875 0.1875 1.875 0.1875 4 1 C5.25 3.5625 5.25 3.5625 6 6 C2.52176885 7.15941038 0.54104422 6.70820884 -3 6 C-2 4 -1 2 0 0 Z " fill="#E9E9EA" transform="translate(53,7)"/>
<path d="M0 0 C2.0625 0.4375 2.0625 0.4375 4 1 C3.67 1.66 3.34 2.32 3 3 C3.66 3 4.32 3 5 3 C4 6 4 6 1.9375 7.1875 C1.298125 7.455625 0.65875 7.72375 0 8 C-1 7 -1 7 -1.125 4 C-1 1 -1 1 0 0 Z " fill="#F7F7F8" transform="translate(19,54)"/>
<path d="M0 0 C0.33 0 0.66 0 1 0 C1 2.97 1 5.94 1 9 C-0.65 9.33 -2.3 9.66 -4 10 C-4 7.69 -4 5.38 -4 3 C-2.68 3 -1.36 3 0 3 C0 2.01 0 1.02 0 0 Z " fill="#F3F2F2" transform="translate(95,0)"/>
<path d="M0 0 C1.23102992 3.69308976 0.87175152 6.88050712 0.5625 10.6875 C0.51029297 11.38939453 0.45808594 12.09128906 0.40429688 12.81445312 C0.27492135 14.54338054 0.13817469 16.27175355 0 18 C0.66 18.33 1.32 18.66 2 19 C1.67 19.66 1.34 20.32 1 21 C0.01 21 -0.98 21 -2 21 C-1.86142159 17.87463363 -1.71290431 14.74981783 -1.5625 11.625 C-1.52318359 10.73554687 -1.48386719 9.84609375 -1.44335938 8.9296875 C-1.40146484 8.07890625 -1.35957031 7.228125 -1.31640625 6.3515625 C-1.27974854 5.56604004 -1.24309082 4.78051758 -1.20532227 3.97119141 C-1 2 -1 2 0 0 Z " fill="#979797" transform="translate(31,75)"/>
<path d="M0 0 C0.33 0 0.66 0 1 0 C1.33 3.63 1.66 7.26 2 11 C0.68 11 -0.64 11 -2 11 C-2.05399736 9.54207116 -2.09279177 8.08357288 -2.125 6.625 C-2.15980469 5.40683594 -2.15980469 5.40683594 -2.1953125 4.1640625 C-2 2 -2 2 0 0 Z " fill="#989795" transform="translate(8,85)"/>
<path d="M0 0 C0.99 0.33 1.98 0.66 3 1 C2.67 1.99 2.34 2.98 2 4 C2.27571139 6.00875442 2.60235737 8.01178687 3 10 C2.01 10 1.02 10 0 10 C-0.33 8.68 -0.66 7.36 -1 6 C-1.66 6 -2.32 6 -3 6 C-2.625 3.5625 -2.625 3.5625 -2 1 C-1.34 0.67 -0.68 0.34 0 0 Z " fill="#484749" transform="translate(3,76)"/>
<path d="M0 0 C0 2.97 0 5.94 0 9 C-1.32 9 -2.64 9 -4 9 C-4.33 6.69 -4.66 4.38 -5 2 C-1.125 0 -1.125 0 0 0 Z " fill="#757273" transform="translate(45,34)"/>
<path d="M0 0 C0.99 0.33 1.98 0.66 3 1 C3.680625 0.814375 4.36125 0.62875 5.0625 0.4375 C5.701875 0.293125 6.34125 0.14875 7 0 C7.66 0.66 8.32 1.32 9 2 C11.06874034 2.6425235 11.06874034 2.6425235 13 3 C13 3.66 13 4.32 13 5 C9.62537285 4.45276317 7.91765 3.9451 5 2 C4.67 3.32 4.34 4.64 4 6 C3.67 5.01 3.34 4.02 3 3 C2.01 3 1.02 3 0 3 C0 2.01 0 1.02 0 0 Z " fill="#ACACAD" transform="translate(43,76)"/>
<path d="M0 0 C0.66 0.33 1.32 0.66 2 1 C1.979375 2.03125 1.95875 3.0625 1.9375 4.125 C1.99276661 7.55152969 2.34550715 10.64572414 3 14 C1.35 14.33 -0.3 14.66 -2 15 C-2 14.34 -2 13.68 -2 13 C-1.34 13 -0.68 13 0 13 C0 8.71 0 4.42 0 0 Z " fill="#A6A5A7" transform="translate(2,24)"/>
<path d="M0 0 C0 1.32 0 2.64 0 4 C-3.3 3.67 -6.6 3.34 -10 3 C-10 3.66 -10 4.32 -10 5 C-10.66 5 -11.32 5 -12 5 C-12 3.68 -12 2.36 -12 1 C-10.37512529 0.83211627 -8.75009558 0.66573213 -7.125 0.5 C-6.22007812 0.4071875 -5.31515625 0.314375 -4.3828125 0.21875 C-2 0 -2 0 0 0 Z " fill="#B5B5B6" transform="translate(12,12)"/>
<path d="M0 0 C0.66 0.33 1.32 0.66 2 1 C2 2.98 2 4.96 2 7 C0.02 7 -1.96 7 -4 7 C-2.92598892 4.08482708 -2.22189824 2.22189824 0 0 Z " fill="#151515" transform="translate(36,89)"/>
<path d="M0 0 C1.32 0.33 2.64 0.66 4 1 C4 2.32 4 3.64 4 5 C1.69 5.66 -0.62 6.32 -3 7 C-3 5.35 -3 3.7 -3 2 C-2.01 2 -1.02 2 0 2 C0 1.34 0 0.68 0 0 Z " fill="#9D9D9C" transform="translate(3,67)"/>
<path d="M0 0 C0.33 0 0.66 0 1 0 C1.36923077 5.53846154 1.36923077 5.53846154 -0.5 7.875 C-1.2425 8.431875 -1.2425 8.431875 -2 9 C-4.1519437 5.77208445 -4.20086443 4.71599191 -4 1 C-2.68 1.33 -1.36 1.66 0 2 C0 1.34 0 0.68 0 0 Z " fill="#CBCACB" transform="translate(19,65)"/>
<path d="M0 0 C0.66 0 1.32 0 2 0 C2.33 4.62 2.66 9.24 3 14 C1.68 13.34 0.36 12.68 -1 12 C-0.34 11.67 0.32 11.34 1 11 C0.835 10.484375 0.67 9.96875 0.5 9.4375 C-0.15049 6.26636124 -0.0620734 3.22781666 0 0 Z " fill="#89878A" transform="translate(15,44)"/>
<path d="M0 0 C0.66 0 1.32 0 2 0 C2.33 1.98 2.66 3.96 3 6 C3.99 6 4.98 6 6 6 C6.33 5.01 6.66 4.02 7 3 C7.33 3 7.66 3 8 3 C8 4.65 8 6.3 8 8 C1.125 7.125 1.125 7.125 0 6 C-0.04080783 4.00041636 -0.04254356 1.99954746 0 0 Z " fill="#616164" transform="translate(88,34)"/>
<path d="M0 0 C2.475 0.495 2.475 0.495 5 1 C5 1.66 5 2.32 5 3 C5.66 3 6.32 3 7 3 C7 3.66 7 4.32 7 5 C5.0085944 5.38133299 3.00720923 5.71325582 1 6 C0 5 0 5 -0.0625 2.4375 C-0.041875 1.633125 -0.02125 0.82875 0 0 Z " fill="#D1D1D0" transform="translate(45,81)"/>
<path d="M0 0 C0.66 0 1.32 0 2 0 C2 0.99 2 1.98 2 3 C2.99 3.33 3.98 3.66 5 4 C4.34 4 3.68 4 3 4 C2.67 5.32 2.34 6.64 2 8 C2.66 8.33 3.32 8.66 4 9 C3.01 9 2.02 9 1 9 C1 8.01 1 7.02 1 6 C0.34 6 -0.32 6 -1 6 C-1.33 6.66 -1.66 7.32 -2 8 C-2 6.35 -2 4.7 -2 3 C-1.01 3 -0.02 3 1 3 C0.67 2.01 0.34 1.02 0 0 Z " fill="#989494" transform="translate(46,42)"/>
<path d="M0 0 C1.2065625 0.0309375 1.2065625 0.0309375 2.4375 0.0625 C2.4375 1.0525 2.4375 2.0425 2.4375 3.0625 C-1.0275 4.5475 -1.0275 4.5475 -4.5625 6.0625 C-3.48963568 0.08511307 -3.48963568 0.08511307 0 0 Z " fill="#EDEDED" transform="translate(4.5625,71.9375)"/>
<path d="M0 0 C1.98 0 3.96 0 6 0 C6.66 1.65 7.32 3.3 8 5 C7.34 5 6.68 5 6 5 C5.67 4.34 5.34 3.68 5 3 C4.67 3.99 4.34 4.98 4 6 C3.01 5.67 2.02 5.34 1 5 C0.67 3.35 0.34 1.7 0 0 Z " fill="#B6B6B4" transform="translate(17,86)"/>
<path d="M0 0 C1.32 0 2.64 0 4 0 C3.67 1.98 3.34 3.96 3 6 C2.34 6 1.68 6 1 6 C0.34 6.66 -0.32 7.32 -1 8 C-1.04241723 5.66705225 -1.04092937 3.33297433 -1 1 C-0.67 0.67 -0.34 0.34 0 0 Z " fill="#252425" transform="translate(10,84)"/>
<path d="M0 0 C0.99 0.33 1.98 0.66 3 1 C2.34 1 1.68 1 1 1 C0.67 3.31 0.34 5.62 0 8 C-0.99 7.67 -1.98 7.34 -3 7 C-3 6.34 -3 5.68 -3 5 C-3.66 4.34 -4.32 3.68 -5 3 C-3.35 2.67 -1.7 2.34 0 2 C0 1.34 0 0.68 0 0 Z " fill="#C6C7C6" transform="translate(25,50)"/>
<path d="M0 0 C0.99 0.33 1.98 0.66 3 1 C3.33 2.98 3.66 4.96 4 7 C2.68 7.33 1.36 7.66 0 8 C0 5.36 0 2.72 0 0 Z " fill="#BABABA" transform="translate(89,44)"/>
<path d="M0 0 C-0.185625 1.11375 -0.37125 2.2275 -0.5625 3.375 C-1.31680657 6.82568861 -1.31680657 6.82568861 0 9 C-0.99 9 -1.98 9 -3 9 C-3.66 6.36 -4.32 3.72 -5 1 C-3 0 -3 0 0 0 Z " fill="#A9A8AB" transform="translate(94,31)"/>
<path d="M0 0 C0.99 0 1.98 0 3 0 C2.67 2.31 2.34 4.62 2 7 C0.68 7.33 -0.64 7.66 -2 8 C-1.125 1.125 -1.125 1.125 0 0 Z " fill="#959697" transform="translate(56,0)"/>
<path d="M0 0 C1.32 0.66 2.64 1.32 4 2 C3.01 4.31 2.02 6.62 1 9 C-1 6 -1 6 -0.625 2.8125 C-0.41875 1.884375 -0.2125 0.95625 0 0 Z " fill="#282829" transform="translate(40,64)"/>
<path d="M0 0 C0.33 0.99 0.66 1.98 1 3 C2.98 3 4.96 3 7 3 C7 3.66 7 4.32 7 5 C4.69 5.66 2.38 6.32 0 7 C-0.66 6.34 -1.32 5.68 -2 5 C-1.34 5 -0.68 5 0 5 C0 3.35 0 1.7 0 0 Z " fill="#3A3738" transform="translate(40,40)"/>
<path d="M0 0 C-1.65 0.33 -3.3 0.66 -5 1 C-5 2.65 -5 4.3 -5 6 C-5.99 6.33 -6.98 6.66 -8 7 C-8 5.02 -8 3.04 -8 1 C-4.93251126 -0.86240388 -3.40254489 -1.2151946 0 0 Z " fill="#83807E" transform="translate(48,26)"/>
<path d="M0 0 C0.99 0 1.98 0 3 0 C3.144375 0.598125 3.28875 1.19625 3.4375 1.8125 C3.8872439 3.56150404 4.42892341 5.28677023 5 7 C3.35 7 1.7 7 0 7 C0 4.69 0 2.38 0 0 Z " fill="#A2A2A0" transform="translate(0,89)"/>
<path d="M0 0 C0 1.32 0 2.64 0 4 C-1.98 4.66 -3.96 5.32 -6 6 C-6 5.01 -6 4.02 -6 3 C-2.66666667 0 -2.66666667 0 0 0 Z " fill="#E9E9E9" transform="translate(21,18)"/>
<path d="M0 0 C0.66 0 1.32 0 2 0 C4 3 4 3 3.625 5.6875 C3.41875 6.450625 3.2125 7.21375 3 8 C2.01 7.34 1.02 6.68 0 6 C-0.1875 2.875 -0.1875 2.875 0 0 Z " fill="#343335" transform="translate(0,41)"/>
<path d="M0 0 C0 1.65 0 3.3 0 5 C-0.99 5.495 -0.99 5.495 -2 6 C-2.33 5.01 -2.66 4.02 -3 3 C-4.99665314 1.31461399 -4.99665314 1.31461399 -7 0 C-3.98968256 -0.93423645 -3.13349732 -1.04449911 0 0 Z " fill="#BAB8B7" transform="translate(56,38)"/>
<path d="M0 0 C1.32 0.66 2.64 1.32 4 2 C3.6875 3.9375 3.6875 3.9375 3 6 C2.01 6.33 1.02 6.66 0 7 C-0.93423645 3.98968256 -1.04449911 3.13349732 0 0 Z " fill="#EFEEEE" transform="translate(45,36)"/>
<path d="M0 0 C2.31 0 4.62 0 7 0 C7 0.66 7 1.32 7 2 C5.35 2.33 3.7 2.66 2 3 C2 3.66 2 4.32 2 5 C1.01 5 0.02 5 -1 5 C-0.67 3.35 -0.34 1.7 0 0 Z " fill="#CACACC" transform="translate(59,0)"/>
<path d="M0 0 C0.33 0.66 0.66 1.32 1 2 C1.99 2.33 2.98 2.66 4 3 C3.67 4.32 3.34 5.64 3 7 C3 6.34 3 5.68 3 5 C1.02 5 -0.96 5 -3 5 C-2.01 3.35 -1.02 1.7 0 0 Z " fill="#302F2F" transform="translate(20,80)"/>
<path d="M0 0 C3.63 0 7.26 0 11 0 C9.02 0.99 9.02 0.99 7 2 C6.67 2.66 6.34 3.32 6 4 C5.34 4 4.68 4 4 4 C4 3.34 4 2.68 4 2 C2.68 1.67 1.36 1.34 0 1 C0 0.67 0 0.34 0 0 Z " fill="#CECCCA" transform="translate(41,32)"/>
<path d="M0 0 C1.4540625 0.0309375 1.4540625 0.0309375 2.9375 0.0625 C1.9475 0.5575 1.9475 0.5575 0.9375 1.0625 C0.9375 1.7225 0.9375 2.3825 0.9375 3.0625 C-0.3825 3.0625 -1.7025 3.0625 -3.0625 3.0625 C-3.3925 3.7225 -3.7225 4.3825 -4.0625 5.0625 C-4.0625 0.08290816 -4.0625 0.08290816 0 0 Z " fill="#A5A5A5" transform="translate(49.0625,63.9375)"/>
<path d="M0 0 C0.66 0.33 1.32 0.66 2 1 C1.67 3.64 1.34 6.28 1 9 C0.34 8.67 -0.32 8.34 -1 8 C-1.125 2.25 -1.125 2.25 0 0 Z " fill="#F9F9F9" transform="translate(21,63)"/>
<path d="M0 0 C-0.33 1.32 -0.66 2.64 -1 4 C-3.31 3.67 -5.62 3.34 -8 3 C-7 1 -7 1 -5.125 0.375 C-3 0 -3 0 0 0 Z " fill="#5F5D60" transform="translate(20,63)"/>
<path d="M0 0 C0.78375 0.165 1.5675 0.33 2.375 0.5 C5.09522679 1.23945377 5.09522679 1.23945377 8 0 C7.67 0.99 7.34 1.98 7 3 C4.9375 3.6875 4.9375 3.6875 3 4 C3 3.34 3 2.68 3 2 C1.68 1.67 0.36 1.34 -1 1 C-0.67 0.67 -0.34 0.34 0 0 Z " fill="#969595" transform="translate(34,51)"/>
<path d="M0 0 C0.99 0 1.98 0 3 0 C3.33 0.99 3.66 1.98 4 3 C3.34 3 2.68 3 2 3 C1.67 3.99 1.34 4.98 1 6 C0.01 5.67 -0.98 5.34 -2 5 C-1.125 1.125 -1.125 1.125 0 0 Z " fill="#E6E6E6" transform="translate(80,25)"/>
<path d="M0 0 C0.66 0 1.32 0 2 0 C2 3.63 2 7.26 2 11 C-0.30694043 7.53958935 -0.62056512 5.09789669 -1 1 C-0.67 0.67 -0.34 0.34 0 0 Z " fill="#C2C2C2" transform="translate(94,9)"/>
<path d="M0 0 C0.99 0 1.98 0 3 0 C2 2 1 4 0 6 C1.98 6 3.96 6 6 6 C6 6.33 6 6.66 6 7 C3.69 7 1.38 7 -1 7 C-0.67 4.69 -0.34 2.38 0 0 Z " fill="#FAFAFA" transform="translate(50,7)"/>
<path d="M0 0 C1.125 1.75 1.125 1.75 2 4 C1.07451225 6.69933926 0.57626463 7.71186768 -2 9 C-2.125 5.625 -2.125 5.625 -2 2 C-1.34 1.34 -0.68 0.68 0 0 Z " fill="#434446" transform="translate(9,70)"/>
<path d="M0 0 C0.33 0 0.66 0 1 0 C1 2.97 1 5.94 1 9 C0.01 8.67 -0.98 8.34 -2 8 C-1.125 1.125 -1.125 1.125 0 0 Z " fill="#E9E7E6" transform="translate(37,69)"/>
<path d="M0 0 C0.66 0 1.32 0 2 0 C2 1.65 2 3.3 2 5 C0.35 5 -1.3 5 -3 5 C-1.125 1.125 -1.125 1.125 0 0 Z " fill="#747277" transform="translate(13,32)"/>
<path d="M0 0 C0.66 0 1.32 0 2 0 C2.33 1.98 2.66 3.96 3 6 C2.01 6.495 2.01 6.495 1 7 C0.34 6.67 -0.32 6.34 -1 6 C-0.67 4.02 -0.34 2.04 0 0 Z " fill="#B1B0B2" transform="translate(11,20)"/>
<path d="M0 0 C0.66 0.33 1.32 0.66 2 1 C2 1.66 2 2.32 2 3 C3.32 3.33 4.64 3.66 6 4 C5 5 5 5 2.4375 5.0625 C1.2309375 5.0315625 1.2309375 5.0315625 0 5 C0 4.34 0 3.68 0 3 C-0.66 2.67 -1.32 2.34 -2 2 C-1.34 1.34 -0.68 0.68 0 0 Z " fill="#ABABAC" transform="translate(74,19)"/>
<path d="M0 0 C2.475 0.99 2.475 0.99 5 2 C5 3.32 5 4.64 5 6 C4.01 6 3.02 6 2 6 C0.3125 3.5 0.3125 3.5 -1 1 C-0.67 0.67 -0.34 0.34 0 0 Z " fill="#F2F1F2" transform="translate(60,14)"/>
<path d="M0 0 C0.66 0.33 1.32 0.66 2 1 C2 2.65 2 4.3 2 6 C0.68 5.34 -0.64 4.68 -2 4 C-2 3.01 -2 2.02 -2 1 C-1.34 0.67 -0.68 0.34 0 0 Z " fill="#404041" transform="translate(94,41)"/>
<path d="M0 0 C0 2.64 0 5.28 0 8 C-0.33 6.68 -0.66 5.36 -1 4 C-2.32 3.67 -3.64 3.34 -5 3 C-3.82137388 0.64274776 -2.79264635 0 0 0 Z " fill="#716D6A" transform="translate(36,28)"/>
<path d="M0 0 C2.0625 0.4375 2.0625 0.4375 4 1 C2.35 2.65 0.7 4.3 -1 6 C-1.042721 4.33388095 -1.04063832 2.66617115 -1 1 C-0.67 0.67 -0.34 0.34 0 0 Z " fill="#F7F7F7" transform="translate(68,13)"/>
<path d="M0 0 C0.66 0 1.32 0 2 0 C2 0.99 2 1.98 2 3 C-1.3 3.33 -4.6 3.66 -8 4 C-8 3.34 -8 2.68 -8 2 C-6.865625 1.855625 -5.73125 1.71125 -4.5625 1.5625 C-1.19222799 1.38828522 -1.19222799 1.38828522 0 0 Z " fill="#9A9999" transform="translate(73,10)"/>
<path d="M0 0 C2.64 0 5.28 0 8 0 C6.515 1.98 6.515 1.98 5 4 C5 3.34 5 2.68 5 2 C3.35 2.33 1.7 2.66 0 3 C0 2.01 0 1.02 0 0 Z " fill="#EAEAEB" transform="translate(32,0)"/>
<path d="M0 0 C0.99 0 1.98 0 3 0 C3.33 1.65 3.66 3.3 4 5 C2.68 5 1.36 5 0 5 C0 3.35 0 1.7 0 0 Z " fill="#B5B4B4" transform="translate(39,89)"/>
<path d="M0 0 C0.66 1.32 1.32 2.64 2 4 C0.02 4.99 0.02 4.99 -2 6 C-2.33 4.35 -2.66 2.7 -3 1 C-2.01 0.67 -1.02 0.34 0 0 Z " fill="#CCCCCB" transform="translate(49,88)"/>
<path d="M0 0 C1.65 0 3.3 0 5 0 C4.67 0.99 4.34 1.98 4 3 C2.35 3.33 0.7 3.66 -1 4 C-0.67 2.68 -0.34 1.36 0 0 Z " fill="#ECECED" transform="translate(13,76)"/>
<path d="M0 0 C0.66 0 1.32 0 2 0 C1.67 2.31 1.34 4.62 1 7 C0.67 6.34 0.34 5.68 0 5 C-0.66 5 -1.32 5 -2 5 C-1.34 3.35 -0.68 1.7 0 0 Z " fill="#575558" transform="translate(19,71)"/>
<path d="M0 0 C1.98 0.66 3.96 1.32 6 2 C5.01 3.485 5.01 3.485 4 5 C1.525 4.01 1.525 4.01 -1 3 C-0.67 2.01 -0.34 1.02 0 0 Z " fill="#E7E5E5" transform="translate(35,48)"/>
<path d="M0 0 C1.65 0 3.3 0 5 0 C5.33 1.65 5.66 3.3 6 5 C5.01 5 4.02 5 3 5 C3 3.68 3 2.36 3 1 C2.01 0.67 1.02 0.34 0 0 Z " fill="#A09EA0" transform="translate(69,36)"/>
<path d="M0 0 C2 3 2 3 1.625 5.1875 C1.41875 5.785625 1.2125 6.38375 1 7 C0.01 7 -0.98 7 -2 7 C-1.34 4.69 -0.68 2.38 0 0 Z " fill="#DAD9DA" transform="translate(94,31)"/>
<path d="M0 0 C2.475 0.495 2.475 0.495 5 1 C5 1.99 5 2.98 5 4 C3.35 3.67 1.7 3.34 0 3 C0 2.01 0 1.02 0 0 Z " fill="#CBCCC9" transform="translate(46,26)"/>
</svg>
